<svg width="265" height="264" viewBox="0 0 265 264" fill="none" xmlns="http://www.w3.org/2000/svg">
<g opacity="0.21">
<path d="M132.5 1C205.129 1 264 59.6543 264 132C264 204.346 205.129 263 132.5 263C59.871 263 1 204.346 1 132C1 59.6543 59.871 1 132.5 1Z" stroke="#336667" stroke-width="2"/>
<path d="M130.285 76.2695C148.943 76.2695 162.664 80.4294 171.196 88.9795C179.848 97.6503 184.131 109.327 184.131 123.893V179.385C184.131 180.628 183.398 181.799 182.321 182.878C181.245 183.956 180.075 184.692 178.832 184.692H168.213C167.156 184.692 166.236 184.125 165.461 183.3C164.684 182.473 163.957 181.29 163.262 179.81L163.255 179.796L163.249 179.781L160.53 173.496L156.954 176.364C147.618 183.984 134.811 187.733 118.654 187.733C105.874 187.733 95.916 184.831 88.9287 178.879L88.9189 178.871C82.1078 172.921 78.7158 165.034 78.7158 155.312C78.7159 146.221 82.3131 138.836 89.4668 133.24C96.6392 127.631 107.784 124.92 122.7 124.92H159.88V121.866C159.88 113.581 157.732 107.647 153.627 103.85C149.541 100.07 141.792 98.0342 130.032 98.0342C121.314 98.0342 115.24 99.3033 111.616 101.672C108.258 103.975 106.506 107.672 106.506 112.997V113.758C106.506 114.301 106.376 114.823 106.084 115.287C105.794 115.748 105.382 116.096 104.9 116.352C103.968 116.846 102.696 117.038 101.208 117.038H87.5537C86.9704 117.038 86.4112 116.821 85.9014 116.515C85.386 116.205 84.8572 115.765 84.3174 115.224C83.2412 114.145 82.5089 112.973 82.5088 111.73V110.97C82.5089 100.383 86.423 91.895 94.2607 85.6113C102.106 79.3214 114.18 76.2696 130.285 76.2695ZM122.7 143.896C115.773 143.896 110.743 144.948 107.477 146.92C104.291 148.843 102.714 151.679 102.714 155.566C102.714 159.36 104.017 162.07 106.532 163.876C108.952 165.613 112.616 166.602 117.654 166.717V166.476H118.654C126.639 166.476 134.37 165.226 141.853 162.727C149.161 160.285 155.161 157.223 159.88 153.559V143.896H122.7Z" stroke="#336667" stroke-width="2"/>
</g>
</svg>
