<svg width="55" height="40" viewBox="0 0 55 40" fill="none" xmlns="http://www.w3.org/2000/svg">
<path d="M23.3932 18.6912C24.4723 18.1484 25.2881 17.5438 25.8472 16.8905C26.8418 15.714 27.3326 14.1538 27.3326 12.2199C27.3326 10.338 26.8418 8.72913 25.8602 7.38027C24.2221 5.1831 21.4496 4.0585 17.5298 4H2V35.6998H16.4799C18.1116 35.6998 19.6229 35.5601 21.0205 35.274C22.4182 34.9848 23.6273 34.455 24.6511 33.6814C25.5612 33.0086 26.3217 32.1733 26.9263 31.1885C27.8818 29.6998 28.3596 28.0129 28.3596 26.1343C28.3596 24.3141 27.9404 22.7638 27.1083 21.4897C26.2665 20.2156 25.0314 19.2827 23.3932 18.6912ZM8.40627 9.50595H15.4008C16.9382 9.50595 18.2058 9.67171 19.2004 9.99999C20.351 10.4778 20.9263 11.4496 20.9263 12.9317C20.9263 14.2611 20.4875 15.1907 19.6197 15.714C18.7454 16.2372 17.611 16.5005 16.2199 16.5005H8.40627V9.50595ZM19.4669 29.6413C18.6934 30.0151 17.6045 30.2004 16.2102 30.2004H8.40627V21.7464H16.3174C17.6955 21.7562 18.7681 21.9382 19.5352 22.2795C20.9003 22.897 21.5796 24.0281 21.5796 25.6825C21.5796 27.6327 20.8775 28.9458 19.4669 29.6413ZM35.2307 5.47887H49.0021V9.42469H35.2307V5.47887ZM53.7864 21.0509C53.5004 19.2145 52.8699 17.5991 51.8883 16.2047C50.8125 14.6251 49.4473 13.468 47.7865 12.7367C46.1321 12.0021 44.2697 11.6349 42.196 11.6381C38.715 11.6381 35.8872 12.727 33.6998 14.8884C31.5189 17.0563 30.4268 20.1733 30.4268 24.2361C30.4268 28.5687 31.6327 31.6987 34.0573 33.6197C36.4723 35.5438 39.261 36.5026 42.4268 36.5026C46.2588 36.5026 49.2393 35.3618 51.3683 33.0866C52.7301 31.65 53.5004 30.2361 53.6694 28.8483H47.3249C46.9576 29.5341 46.5319 30.0704 46.0443 30.4604C45.1602 31.1755 44.0097 31.533 42.599 31.533C41.2567 31.533 40.1191 31.2372 39.17 30.6489C37.6034 29.7063 36.7843 28.0552 36.6803 25.7053H53.9945C54.0205 23.6803 53.9555 22.1235 53.7864 21.0509ZM36.8363 21.6587C37.0638 20.1343 37.6164 18.9252 38.494 18.0314C39.3715 17.1408 40.6131 16.6923 42.2025 16.689C43.6684 16.689 44.8937 17.1083 45.8916 17.9501C46.8764 18.7985 47.4322 20.0303 47.5459 21.6587H36.8363Z" fill="#336667"/>
</svg>
