<svg width="123" height="158" viewBox="0 0 123 158" fill="none" xmlns="http://www.w3.org/2000/svg">
<circle cx="61.5" cy="61.5" r="61.5" fill="#336667"/>
<circle cx="61.5" cy="145.5" r="12.5" fill="#336667"/>
<path d="M74.6724 80.0347L74.3203 80.3889L72.5599 81.8056C68.335 85.2685 62.5061 87 55.0734 87C49.2054 87 44.7066 85.662 41.577 82.9861C38.5257 80.3102 37 76.7685 37 72.3611C37 68.2685 38.6039 64.963 41.8117 62.4444C45.0196 59.9259 50.066 58.6667 56.9511 58.6667H74.6724V56.7778C74.6724 52.8426 73.6553 49.9306 71.621 48.0417C69.5868 46.1528 65.8313 45.2083 60.3545 45.2083C56.2861 45.2083 53.3521 45.7986 51.5526 46.9792C49.8313 48.1597 48.9707 50.0486 48.9707 52.6458V53C48.9707 53.7083 48.3056 54.0625 46.9756 54.0625H40.6381C40.3252 54.0625 39.934 53.8264 39.4645 53.3542C38.9951 52.8819 38.7604 52.4491 38.7604 52.0556V51.7014C38.7604 46.9005 40.5208 43.0833 44.0416 40.25C47.5623 37.4167 53.0391 36 60.4719 36C69.0782 36 75.2983 37.9282 79.132 41.7847C83.044 45.7199 85 51.0324 85 57.7222V83.5764C85 83.9699 84.7653 84.4028 84.2958 84.875C83.8264 85.3472 83.3961 85.5833 83.0049 85.5833H78.0758C77.4499 85.5833 76.824 84.9143 76.198 83.5764L74.6724 80.0347ZM55.0734 78.1458V78.0278C58.8289 78.0278 62.467 77.4375 65.9878 76.2569C69.5086 75.0764 72.4034 73.581 74.6724 71.7708V66.5764H56.9511C50.4572 66.5764 47.2103 68.544 47.2103 72.4792C47.2103 76.2569 49.8313 78.1458 55.0734 78.1458Z" fill="white"/>
</svg>
